<?xml version="1.0" encoding="UTF-8" standalone="no"?>
<!-- Created with Inkscape (http://www.inkscape.org/) -->

<svg
   width="210mm"
   height="297mm"
   viewBox="0 0 210 297"
   version="1.1"
   id="svg5"
   xmlns="http://www.w3.org/2000/svg"
   xmlns:svg="http://www.w3.org/2000/svg">
  <defs
     id="defs2" />
  <g
     id="layer1">
    <g
       id="g830"
       transform="matrix(0.48729494,0,0,-0.48729494,-40.596148,333.17415)">
      <path
         d="m 89.8152,611.0334 c 11.1095,-9.2991 18.9944,-20.7981 23.6554,-34.4965 9.5292,-37.0143 5.5567,-72.6582 -11.9177,-106.9314 -23.1574,-58.797 -20.4423,-116.4662 8.1453,-173.0063 28.9894,-57.5447 76.8872,-94.4827 143.6925,-110.8134 25.4976,-8.1641 40.5697,-21.1348 45.2151,-38.9129 4.6318,17.7985 19.7567,30.7786 45.3759,38.9418 66.6859,16.3327 114.5299,53.2607 143.5323,110.7845 28.5865,56.5401 31.3018,114.2093 8.1451,173.0063 -17.4751,34.2732 -21.4475,69.9171 -11.9177,106.9314 4.1581,12.9722 12.0435,24.4709 23.6548,34.4965 l -59.9151,71.236 c -99.2505,-28.8269 -198.5006,-28.8269 -297.7509,0 z"
         style="fill:#fdc621;fill-opacity:1;fill-rule:evenodd;stroke:none"
         id="path832" />
      <path
         d="m 298.6021,160.8803 c -9.1987,15.4409 -26.1966,24.5367 -43.55,30.0929 l -0.182,0.0581 -0.186,0.0454 c -62.8889,15.3737 -110.8043,49.8815 -140.1236,107.9764 -13.3313,26.4155 -21.634,54.5695 -22.9167,84.2176 -1.2543,28.9962 4.3053,57.1595 14.8825,84.0975 8.8619,17.4464 14.6993,36.0141 16.6793,55.5168 1.8819,18.5397 0.1803,36.9864 -4.4603,55.01 l -0.0519,0.2004 -0.066,0.1958 c -4.3895,12.8999 -11.4974,24.0305 -21.2386,33.2845 l 54.2355,64.483 c 97.8809,-27.7812 196.0816,-27.7812 293.9633,0 l 54.2713,-64.5253 c -9.6931,-9.3177 -17.1426,-20.3502 -21.3044,-33.334 l -0.0485,-0.1511 -0.0394,-0.1533 c -4.6403,-18.0236 -6.3419,-36.4703 -4.4603,-55.01 1.9795,-19.5027 7.8166,-38.0704 16.6794,-55.5168 10.5794,-26.9453 16.1413,-55.1177 14.8847,-84.1221 -1.2844,-29.6402 -9.5871,-57.7857 -22.9193,-84.1918 -29.3,-58.0337 -77.1369,-92.5611 -139.9651,-107.9493 l -0.1809,-0.0439 -0.1771,-0.0567 c -17.398,-5.5437 -34.4985,-14.6373 -43.7259,-30.1241"
         style="fill:#164a13;fill-opacity:1;fill-rule:evenodd;stroke:none"
         id="path834" />
      <path
         d="m 426.4427,358.3922 -30.4484,42.6991 -20.641,-12.9796 -63.4493,10.914 16.3341,50.1341 39.2357,14.0162 1.3363,9.6987 c 0,0 -21.6184,1.8933 -38.0157,3.1252 -16.3965,1.2311 -9.7688,5.8017 -9.7688,5.8017 l 11.3117,38.1447 -34.9799,-0.5494 -6.1917,-27.2423 -48.5711,86.6636 c 0.6554,2.749 0.3113,3.9821 0.3113,3.9821 -3.5464,-11.2221 -19.9074,-21.3948 -19.9074,-21.3948 -38.7219,-33.7365 -40.4864,-76.5691 -40.4864,-76.5691 l -8.1865,-0.1281 -3.5561,-1.0789 3.6485,-1.2234 8.1165,-0.0859 0.0595,-2.693 c -5.1282,-5.2914 -0.5576,-11.9199 -0.5576,-11.9199 5.3036,-5.8723 3.094,-7.3959 3.094,-7.3959 -1.2308,-16.3967 24.1611,-48.3554 38.1606,-59.6999 14.9542,-12.117 17.85,-26.5921 17.85,-26.5921 l 1.247,-4.3741 c 0.248,1.1746 0.3574,2.3731 0.3691,3.5815 l 29.802,58.6282 -3.4591,-56.5787 -48.56,-36.4961 26.996,-59.8768 -8.2959,54.2149 26.6412,10.0964 -5.9227,-96.8717 34.8667,102.5376 45.3875,1.4573 7.4976,-98.1499 14.5069,71.6959 26.9152,-54.6673 -12.2326,115.1972 z M 227.0086,560.0497 v 0 c 4.7087,3.2108 13.5408,13.3501 15.1736,17.8546 l 48.6644,-87.1512 -0.4519,-1.989 -0.6863,-3.733 -97.5214,-0.0428 c -2.6538,26.7579 15.6855,62.0144 34.8216,75.0614 z m 15.6739,-184.8512 v 0 c -1.256,15.1543 -18.1635,30.6961 -18.1635,30.6961 -28.4372,21.6561 -29.7012,53.8245 -29.7012,53.8245 l 79.02,-6.9474 -1.1316,-18.5068 z m 44.1777,101.5991 v 0 c -18.5944,-1.0363 -87.0078,-5.8334 -87.0078,-5.8334 l -6.8825,11.5962 96.9752,0.5715 c 0,0 15.5101,-5.2979 -3.0849,-6.3343"
         style="fill:#fdc621;fill-opacity:1;fill-rule:evenodd;stroke:none"
         id="path836" />
      <path
         d="m 197.5935,608.6744 c -1.2458,-4.8764 -3.8775,-8.4538 -7.8933,-10.7226 -4.0051,-2.2714 -8.8081,-2.8837 -14.3907,-1.8508 -6.4392,1.1914 -11.0673,4.1216 -13.8903,8.8022 -2.8352,4.6726 -3.5771,10.6359 -2.236,17.8812 1.3697,7.4067 4.2412,12.7327 8.6085,16.0002 4.3663,3.2666 9.9601,4.2644 16.7922,3.0004 5.5423,-1.0253 9.6769,-3.1867 12.3894,-6.4921 2.7232,-3.3075 3.7803,-7.4529 3.1776,-12.4586 l -8.8279,1.633 c 0.0822,2.5277 -0.5783,4.5888 -1.9627,6.1784 -1.3935,1.5925 -3.4812,2.6456 -6.2527,3.1581 -3.9299,0.7271 -7.1575,0.0111 -9.6735,-2.1501 -2.5152,-2.1608 -4.2188,-5.6809 -5.1213,-10.5582 -0.8725,-4.7163 -0.5315,-8.5623 1.0281,-11.5089 1.5588,-2.9566 4.2123,-4.7812 7.9713,-5.4766 2.7105,-0.5014 5.0664,-0.2182 7.0449,0.8436 1.9891,1.0599 3.4764,2.8483 4.4694,5.3431 z m 4.3013,-16.8083 v 0 l 5.1523,43.9092 31.8994,-3.7431 -0.8961,-7.6335 -22.9827,2.6969 -1.0967,-9.3441 21.0183,-2.4661 -0.8807,-7.5119 -21.0186,2.4665 -1.3261,-11.2981 24.0619,-2.8236 -0.9533,-8.1221 z m 39.8852,-4.4544 v 0 l 3.7332,44.0527 9.4867,-0.8039 15.3354,-31.7843 2.5651,30.2675 8.9456,-0.7583 -3.733,-44.0527 -9.3642,0.7934 -15.459,31.7951 -2.5643,-30.2678 z m 54.625,-3.1487 v 0 l -0.2843,36.339 -13.0975,-0.1026 -0.0612,7.8704 35.2315,0.2758 0.0621,-7.8698 -13.0351,-0.1026 0.2843,-36.3391 z m 39.6768,36.7792 v 0 l -5.0904,-19.1222 12.2584,0.6715 z m -5.7645,8.5524 v 0 l -13.2905,-45.0048 9.568,0.5239 2.4086,9.246 17.1094,0.9369 3.496,-8.9226 9.5363,0.5221 -18.3393,43.2726 z m 25.5166,1.5971 v 0 l 9.0621,1.351 4.0893,-27.4283 c 0.5028,-3.3755 1.5409,-5.749 3.1201,-7.0988 1.5794,-1.3496 3.8347,-1.8111 6.7739,-1.3729 2.9699,0.4425 5.0136,1.535 6.143,3.278 1.1267,1.753 1.4368,4.3277 0.9309,7.7233 l -4.0899,27.4286 9.0012,1.3419 4.2344,-28.4011 c 0.801,-5.3725 -0.0856,-9.7113 -2.6581,-13.0272 -2.5727,-3.3163 -6.6759,-5.3995 -12.3114,-6.2396 -5.6869,-0.8476 -10.2481,-0.0667 -13.6848,2.3428 -3.4481,2.4179 -5.5738,6.3187 -6.376,11.7011 z m 54.218,-10.976 v 0 l 10.476,2.1744 c 2.2776,0.4728 3.8571,1.2821 4.7316,2.4163 0.8824,1.146 1.1146,2.7014 0.7041,4.6783 -0.39,1.8762 -1.2073,3.1929 -2.4412,3.9415 -1.2455,0.7566 -2.8905,0.9176 -4.9575,0.4884 l -10.8876,-2.26 z m -3.8489,-26.233 v 0 l -8.9852,43.2879 21.0115,4.3617 c 4.7262,0.9807 8.4265,0.7021 11.1226,-0.8414 2.6971,-1.5443 4.4719,-4.3996 5.3325,-8.5436 0.5474,-2.6393 0.4544,-4.9615 -0.2956,-6.9483 -0.7371,-1.9956 -2.0829,-3.5305 -4.0363,-4.6057 2.0157,-0.2829 3.5612,-1.0196 4.6392,-2.2297 1.078,-1.2102 1.9729,-3.2539 2.6952,-6.1288 l 1.243,-5.0797 c 0.008,-0.0403 0.0209,-0.1006 0.0374,-0.1806 0.5975,-2.5767 1.4845,-4.0252 2.6631,-4.3568 l 0.2747,-1.3241 -9.7534,-2.0245 c -0.4383,0.5477 -0.8334,1.2399 -1.1892,2.0976 -0.3455,0.8601 -0.6673,1.9027 -0.9632,3.1284 l -1.0681,4.5411 c -0.6588,2.6682 -1.5355,4.3701 -2.6444,5.1236 -1.1089,0.7537 -2.8522,0.8838 -5.2203,0.392 l -9.4521,-1.9618 3.499,-16.8577 z"
         style="fill:#fdc621;fill-opacity:1;fill-rule:evenodd;stroke:none"
         id="path838" />
      <path
         d="m 184.5286,277.2303 -13.3855,-6.4111 6.3539,-6.6648 z m 2.069,7.4529 v 0 l 5.4369,-5.7019 -15.7459,-31.5369 -4.9428,5.1849 3.3857,6.3397 -8.8687,9.3016 -6.4457,-3.1303 -4.959,5.2016 z m -7.9897,-39.9016 v 0 l 19.2155,27.0229 8.2372,-5.8572 -9.2546,-24.3819 19.9217,16.7961 8.2692,-5.8793 -19.2155,-27.0227 -5.224,3.7148 15.4956,21.7922 -20.9835,-17.8906 -5.6746,4.0354 9.9334,25.7479 -15.4961,-21.7924 z m 33.279,-22.6299 v 0 l 22.6917,-10.2588 2.5265,5.5891 -16.5569,7.4851 3.5149,7.774 14.4624,-6.5384 2.3366,5.1687 -14.4621,6.5384 2.9064,6.4296 15.8145,-7.1496 2.3748,5.2526 -21.9495,9.9233 z m 40.5766,3.5385 v 0 l 7.8185,-1.8042 c 1.7005,-0.3923 3.0305,-0.3362 3.9815,0.1618 0.9604,0.504 1.6064,1.4908 1.9471,2.9665 0.3229,1.4003 0.1786,2.5537 -0.4263,3.4509 -0.6111,0.9059 -1.6821,1.5316 -3.225,1.8879 l -8.1255,1.8751 z m -10.8511,-16.6637 v 0 l 7.4566,32.3087 15.6829,-3.6193 c 3.5275,-0.8141 5.9607,-2.1648 7.3134,-4.0623 1.3527,-1.8981 1.6668,-4.3999 0.9527,-7.4931 -0.4541,-1.9695 -1.2469,-3.5218 -2.3802,-4.6406 -1.1285,-1.1282 -2.5262,-1.7521 -4.1944,-1.8717 1.2843,-0.8252 2.1058,-1.8111 2.461,-2.9738 0.3546,-1.1628 0.3234,-2.8358 -0.0864,-5.021 l -0.7467,-3.8506 c -0.007,-0.0298 -0.0176,-0.0749 -0.0312,-0.1347 -0.4005,-1.9428 -0.2508,-3.2079 0.4476,-3.8032 l -0.2285,-0.9885 -7.2793,1.6804 c -0.1267,0.5103 -0.1783,1.1061 -0.152,1.8017 0.0338,0.6945 0.1429,1.5055 0.3252,2.4333 l 0.6964,3.4288 c 0.3884,2.0245 0.3249,3.4588 -0.1936,4.32 -0.5196,0.8614 -1.6667,1.4969 -3.4341,1.9046 l -7.0543,1.6282 -2.9044,-12.5819 z m 31.4462,3.3378 v 0 c -0.0938,-3.5691 0.9694,-6.4174 3.1912,-8.521 2.2215,-2.1118 5.4125,-3.3253 9.574,-3.6416 4.216,-0.3206 7.56,0.3739 10.0259,2.0902 2.4659,1.7164 3.8259,4.2954 4.0873,7.7369 0.1312,1.7241 -0.0941,3.2287 -0.6744,4.5139 -0.5808,1.2855 -1.5092,2.3505 -2.8009,3.204 -0.7194,0.4708 -1.5721,0.9213 -2.5498,1.3425 -0.985,0.4215 -2.658,1.0267 -5.0258,1.8235 -0.5567,0.1809 -1.332,0.4249 -2.3329,0.7472 -3.6896,1.152 -5.4675,2.6051 -5.3348,4.3526 0.0984,1.2875 0.6565,2.2471 1.6753,2.8707 1.019,0.6247 2.4162,0.8651 4.1944,0.7299 2.0543,-0.1562 3.5932,-0.697 4.6409,-1.6169 1.04,-0.9272 1.5602,-2.1923 1.561,-3.8035 l 6.5293,-0.4961 c 0.1307,3.3435 -0.8152,6.0052 -2.8522,8.002 -2.0372,1.9972 -4.9878,3.1388 -8.8506,3.4327 -4.1309,0.3138 -7.346,-0.305 -9.661,-1.8561 -2.3145,-1.5506 -3.5978,-3.9351 -3.843,-7.1538 -0.1309,-1.724 0.0621,-3.2423 0.5797,-4.5533 0.5162,-1.3113 1.3286,-2.3905 2.4372,-3.2224 1.2544,-0.9434 3.396,-1.8692 6.4259,-2.7783 0.309,-0.0927 0.5426,-0.1641 0.6857,-0.2058 l 0.1956,-0.0615 c 5.6633,-1.756 8.4192,-3.6309 8.2664,-5.6387 -0.104,-1.3716 -0.6817,-2.3762 -1.7385,-2.997 -1.0576,-0.629 -2.5792,-0.868 -4.5488,-0.7183 -2.3221,0.1766 -4.0671,0.7486 -5.2268,1.7158 -1.1599,0.9666 -1.8011,2.3644 -1.9162,4.1921 z m 31.46,-11.7595 v 0 l -2.5129,33.063 23.0845,1.7546 0.4368,-5.7481 -16.3709,-1.2441 0.57,-7.4956 14.3473,1.0904 0.4368,-5.7481 -14.3475,-1.0904 1.0701,-14.0712 z m 28.3748,19.8025 v 0 c 0.997,-3.5118 2.5464,-6.012 4.6585,-7.5138 2.1124,-1.5015 4.5689,-1.851 7.3638,-1.057 2.8315,0.8042 4.7526,2.3964 5.7748,4.7883 1.023,2.3921 1.0338,5.335 0.0365,8.8472 -0.9969,3.5118 -2.5537,6.0106 -4.6808,7.5078 -2.1274,1.497 -4.5981,1.842 -7.4299,1.0381 -2.795,-0.7937 -4.7013,-2.3817 -5.7113,-4.7617 -1.0114,-2.3729 -1.0133,-5.322 -0.0116,-8.8489 z m -6.6988,-1.902 v 0 c 1.4593,-5.139 4.0255,-8.8288 7.6977,-11.0696 3.6703,-2.2337 7.8866,-2.6742 12.648,-1.3221 4.7622,1.3521 8.132,3.9475 10.0879,7.7791 1.9613,3.8407 2.2127,8.3305 0.7532,13.4691 -1.4613,5.1463 -4.0326,8.8265 -7.7196,11.0634 -3.6783,2.2314 -7.9095,2.6674 -12.6706,1.3155 -4.7617,-1.3521 -8.117,-3.9433 -10.0678,-7.7649 -1.9511,-3.822 -2.1929,-8.3174 -0.7288,-13.4705 z m 38.2479,12.0336 v 0 c 1.6642,-3.2496 3.6722,-5.3992 6.0369,-6.459 2.3649,-1.0599 4.8424,-0.9227 7.4285,0.4016 2.62,1.342 4.1921,3.2789 4.7282,5.8244 0.5357,2.5458 -0.0287,5.4346 -1.6929,8.6839 -1.6645,3.2497 -3.6788,5.3958 -6.0573,6.4486 -2.3789,1.053 -4.87,0.9085 -7.4897,-0.4335 -2.5858,-1.3246 -4.1449,-3.2541 -4.6704,-5.7855 -0.5289,-2.5254 0.0451,-5.4175 1.7167,-8.6805 z m -6.1983,-3.1745 v 0 c -2.442,4.7679 -3.0829,9.2242 -1.9171,13.3531 1.1668,4.1296 3.9513,7.3259 8.3569,9.5823 4.4053,2.2564 8.6405,2.6552 12.6836,1.1854 4.0533,-1.4734 7.2938,-4.5802 9.7327,-9.3421 2.4353,-4.7543 3.066,-9.2067 1.893,-13.3563 -1.1704,-4.1406 -3.9682,-7.3437 -8.3735,-9.6001 -4.4056,-2.2564 -8.6264,-2.6481 -12.6629,-1.1747 -4.04,1.48 -7.2772,4.5975 -9.7127,9.3524 z m 34.8083,21.9421 v 0 l 6.3091,4.9581 c 1.372,1.0783 2.1628,2.1495 2.3709,3.2029 0.2103,1.0641 -0.1536,2.186 -1.0891,3.3766 -0.8878,1.1302 -1.8768,1.7413 -2.9554,1.8326 -1.089,0.0921 -2.2473,-0.3495 -3.492,-1.3278 l -6.5574,-5.1528 z m 6.1742,-18.9025 v 0 l -20.488,26.0711 12.655,9.945 c 2.8463,2.2368 5.4244,3.2851 7.7505,3.1485 2.3269,-0.1369 4.4728,-1.4616 6.4338,-3.9572 1.2492,-1.5894 1.9613,-3.1802 2.1214,-4.765 0.1715,-1.586 -0.2197,-3.0663 -1.1729,-4.4408 1.449,0.4827 2.732,0.5043 3.8602,0.0513 1.1279,-0.4524 2.4117,-1.5262 3.8568,-3.2159 l 2.5305,-2.9965 c 0.019,-0.0238 0.0476,-0.0601 0.0853,-0.1088 1.262,-1.5308 2.3409,-2.2074 3.2431,-2.0365 l 0.6265,-0.7979 -5.8743,-4.6159 c -0.4767,0.2213 -0.9734,0.5547 -1.4983,1.0116 -0.5199,0.4618 -1.0832,1.0554 -1.6923,1.7793 l -2.2329,2.693 c -1.3337,1.5721 -2.4902,2.4224 -3.4866,2.5585 -0.9964,0.1358 -2.211,-0.3591 -3.6368,-1.48 l -5.6934,-4.4736 7.9789,-10.1528 z m 33.3499,29.2186 v 0 l -20.6008,17.8447 -6.4315,-7.4245 -4.4618,3.8648 17.3013,19.9734 4.4617,-3.8647 -6.4012,-7.3899 20.6008,-17.8447 z"
         style="fill:#fdc621;fill-opacity:1;fill-rule:evenodd;stroke:none"
         id="path840" />
    </g>
  </g>
</svg>
